<?xml version="1.0" encoding="UTF-8"?>
<svg version="1.1" xmlns="http://www.w3.org/2000/svg" width="1024" height="1024">
    <path
        d="M0 0 C337.92 0 675.84 0 1024 0 C1024 337.92 1024 675.84 1024 1024 C686.08 1024 348.16 1024 0 1024 C0 686.08 0 348.16 0 0 Z "
        fill="#1A79C1" transform="translate(0,0)" />
    <path
        d="M0 0 C337.92 0 675.84 0 1024 0 C1024 337.92 1024 675.84 1024 1024 C686.08 1024 348.16 1024 0 1024 C0 686.08 0 348.16 0 0 Z M160.0625 87.625 C159.32362549 87.87733398 158.58475098 88.12966797 157.82348633 88.38964844 C128.72647081 98.77945421 104.30612612 121.04830221 90.76708984 148.76196289 C88.46783564 153.70234809 86.47676339 158.72888847 84.6875 163.875 C84.45708008 164.52049805 84.22666016 165.16599609 83.98925781 165.83105469 C78.58947416 182.36343194 78.56808004 199.37393099 78.61904907 216.56759644 C78.61558708 219.12625583 78.61081889 221.68491373 78.60486734 224.24356854 C78.59410227 229.77883671 78.59431744 235.31401688 78.60200882 240.84928894 C78.61341539 249.08090147 78.60752452 257.31244056 78.5983839 265.54405269 C78.58262913 280.25123112 78.58393898 294.95837032 78.59262064 309.66555244 C78.60018128 322.53766054 78.60213091 335.4097543 78.5985527 348.28186417 C78.59832355 349.13725936 78.59809439 349.99265456 78.59785829 350.87397082 C78.5969242 354.34672969 78.595969 357.81948855 78.594979 361.2922474 C78.58581108 393.84050547 78.59410768 426.38873863 78.61026969 458.93699285 C78.62450293 487.82047603 78.62323372 516.70391951 78.60888672 545.58740234 C78.59280329 578.07489573 78.58646393 610.56236712 78.59572351 643.04986393 C78.59668559 646.51674405 78.59762411 649.98362418 78.5985527 653.4505043 C78.59878994 654.30407213 78.59902717 655.15763997 78.59927159 656.03707349 C78.6026762 668.89608885 78.59870771 681.75508826 78.59111404 694.61410141 C78.58251689 709.24491139 78.58472182 723.87567618 78.60095628 738.50648056 C78.60973109 746.68301313 78.61038975 754.85944773 78.59901775 763.03597765 C78.59144696 769.15741349 78.59972481 775.27873524 78.61394148 781.40015711 C78.61727257 783.86429085 78.61563325 786.32843782 78.60831411 788.79256295 C78.55971765 806.52374466 79.2690307 824.21320974 84.6875 841.25 C84.94023682 842.065896 85.19297363 842.88179199 85.45336914 843.72241211 C88.11213612 851.9320644 91.75394198 859.50456088 96 867 C96.54269531 867.97066406 97.08539063 868.94132813 97.64453125 869.94140625 C113.79517043 896.93773014 139.76272645 914.30147065 169.51171875 922.9921875 C184.32548237 926.52678522 199.0393534 926.28494238 214.17648315 926.26069641 C216.85003851 926.2637193 219.52358237 926.26752908 222.19713414 926.27228898 C227.99570342 926.28101889 233.79423737 926.28237457 239.59281158 926.27878571 C248.21581298 926.27346292 256.83878037 926.27958979 265.46177807 926.28786864 C281.76034152 926.3030873 298.05888939 926.30481594 314.35745846 926.30234561 C326.94470937 926.30051115 339.5319552 926.30227577 352.11920547 926.30657005 C353.92922331 926.30717246 355.73924115 926.30777366 357.54925898 926.30837366 C360.27695421 926.30928093 363.00464944 926.3101896 365.73234466 926.31110601 C391.08388672 926.31953224 416.43542687 926.32387347 441.78697014 926.31969929 C442.74213587 926.31954291 443.6973016 926.31938654 444.68141174 926.31922542 C449.52229671 926.31841967 454.36318166 926.3175739 459.20406662 926.31671212 C460.16543961 926.31654103 461.1268126 926.31636994 462.1173181 926.31619367 C464.06144581 926.31584701 466.00557353 926.31549848 467.94970124 926.31514808 C498.20199335 926.3097906 528.4542563 926.31772344 558.70654297 926.33618164 C592.71457038 926.3569072 626.72257974 926.36762337 660.73061383 926.36360615 C664.35813021 926.36321082 667.9856466 926.36284927 671.61316299 926.36250877 C672.9528906 926.36237268 672.9528906 926.36237268 674.31968341 926.36223383 C687.7895548 926.36106894 701.25940792 926.36770781 714.72927475 926.37832069 C730.05125883 926.39038072 745.37320274 926.39192231 760.69518743 926.37953053 C769.26357583 926.37291049 777.83186811 926.37451324 786.40024878 926.38811904 C792.13162436 926.39638369 797.86292819 926.39363991 803.59429798 926.38214377 C806.85448958 926.37590729 810.11445815 926.37590952 813.37464546 926.38600711 C826.6074386 926.42413703 839.10737885 926.19400173 852 923 C852.83761773 922.80803443 853.67523546 922.61606886 854.53823555 922.41828614 C875.76778377 917.3189942 893.41915358 906.02676226 909 891 C909.73089844 890.33226562 910.46179688 889.66453125 911.21484375 888.9765625 C925.42598552 875.63778785 934.73855833 856.529425 940 838 C940.29519531 836.98550781 940.59039063 835.97101562 940.89453125 834.92578125 C945.29884084 818.67539758 945.28884259 802.56577128 945.26069641 785.8556366 C945.26372014 783.30639147 945.26761073 780.75714726 945.27228898 778.20790464 C945.28041159 772.68397436 945.28237764 767.16009591 945.27878571 761.6361618 C945.27345831 753.421461 945.27959439 745.20679584 945.28786864 736.99209892 C945.30307999 721.4643429 945.30481668 705.93660324 945.30234561 690.40884133 C945.30051045 678.41564373 945.30227723 666.42245147 945.30657005 654.42925453 C945.30717246 652.70405869 945.30777366 650.97886284 945.30837366 649.253667 C945.30928094 646.65372512 945.31018961 644.05378323 945.31110601 641.45384135 C945.31953119 617.29224921 945.32387422 593.13065907 945.31969929 568.96906567 C945.31954291 568.0589022 945.31938654 567.14873873 945.31922542 566.21099455 C945.31841968 561.59829281 945.31757391 556.98559109 945.31671212 552.37288936 C945.31654103 551.4568493 945.31636994 550.54080923 945.31619367 549.59701038 C945.31584701 547.74455689 945.31549848 545.89210339 945.31514808 544.0396499 C945.3097912 515.21709499 945.31772217 486.39457068 945.33618164 457.57202148 C945.35691374 425.16331173 945.36762209 392.75462093 945.36360615 360.34590417 C945.36321083 356.88800037 945.36284928 353.43009657 945.36250877 349.97219276 C945.36241804 349.12081689 945.36232731 348.26944101 945.36223383 347.39226586 C945.36106961 334.56008339 945.36770274 321.7279201 945.37832069 308.89574242 C945.39038892 294.29627972 945.39191293 279.6968592 945.37953053 265.09739586 C945.37291764 256.93600779 945.37449661 248.77472065 945.38811904 240.61334072 C945.39737411 234.5066115 945.39080822 228.39999256 945.37827124 222.29327134 C945.37562658 219.83244676 945.37798351 217.3716103 945.38600711 214.91079738 C945.50298466 176.33981095 935.75648147 143.61453202 908.6875 115.375 C886.61351032 93.95024531 856.0874099 81.61187224 825.38559341 81.74552441 C824.27572118 81.74231793 823.16584895 81.73911145 822.02234423 81.73580781 C818.31889952 81.7275342 814.61561765 81.73342293 810.91217041 81.73930359 C808.22384198 81.7362817 805.53552501 81.7324726 802.84720016 81.72771102 C797.01015595 81.71897087 791.17314684 81.71762911 785.33609772 81.72121429 C776.65585269 81.72653167 767.9756415 81.72041558 759.29540015 81.71213136 C742.88873941 81.69690327 726.48209412 81.69518508 710.0754278 81.69765439 C697.40422363 81.69948819 684.73302452 81.69772561 672.06182098 81.69342995 C670.24031585 81.69282754 668.41881072 81.69222634 666.59730558 81.69162634 C663.85234696 81.69071907 661.10738834 81.68981041 658.36242972 81.68889399 C632.84584855 81.68046617 607.32926928 81.67612758 581.81268692 81.68030071 C580.85105772 81.68045709 579.88942852 81.68061346 578.89865903 81.68077458 C574.02492622 81.68158034 569.15119341 81.68242611 564.2774606 81.68328788 C562.82559646 81.68354451 562.82559646 81.68354451 561.34440174 81.68380633 C559.38705433 81.68415299 557.42970692 81.68450152 555.47235952 81.68485192 C525.01899646 81.69020859 494.56566235 81.68227952 464.11230469 81.66381836 C429.88381891 81.6430929 395.65535107 81.63237671 361.42685866 81.63639385 C357.7757198 81.63678918 354.12458094 81.63715073 350.47344208 81.63749123 C349.57446474 81.63758196 348.6754874 81.63767269 347.74926832 81.63776617 C334.19038448 81.63893115 320.63151878 81.63229141 307.07263947 81.62167931 C291.64813314 81.60961922 276.22366672 81.60807766 260.7991598 81.62046947 C252.17301547 81.62708982 243.54696661 81.62548606 234.92082995 81.61188096 C229.15088501 81.60361679 223.38101134 81.60635947 217.61107215 81.61785623 C214.32881663 81.62409325 211.04678267 81.62408947 207.7645314 81.61399289 C191.25463592 81.56674444 175.82123593 82.20172678 160.0625 87.625 Z "
        fill="#F4F3F2" transform="translate(0,0)" />
    <path
        d="M0 0 C3.0216321 0.73251687 4.80104733 2.27158096 6.93359375 4.46875 C8.54930318 7.70016886 8.5222104 10.97586002 7.93359375 14.46875 C6.52952301 17.04920434 5.13659964 18.41944219 2.93359375 20.46875 C1.94359375 20.46875 0.95359375 20.46875 -0.06640625 20.46875 C4.80581081 28.89643092 10.28095043 36.80183607 15.92382812 44.7265625 C20.65255573 51.4365499 24.90652542 58.31599589 28.93359375 65.46875 C34.76867962 61.18174814 40.42428817 56.69693899 46.06152344 52.15551758 C51.43507561 47.83724529 56.90473524 43.66010896 62.421875 39.52734375 C65.09812648 37.53818124 65.09812648 37.53818124 66.93359375 34.46875 C66.43859375 33.80875 65.94359375 33.14875 65.43359375 32.46875 C63.56811286 28.73778823 63.06257845 25.52293028 63.93359375 21.46875 C65.68967021 18.45090009 67.7629581 16.05406783 70.93359375 14.46875 C75.12850943 14.06539272 77.45859465 14.22676933 81.24609375 16.15625 C84.12751701 18.6356142 85.16137122 19.77924236 85.93359375 23.46875 C85.85725554 27.66735176 85.20575092 30.52595965 82.68359375 33.84375 C79.7881444 36.60758802 78.72661431 36.92143495 74.93359375 37.46875 C74.82914444 38.0366777 74.72469513 38.60460541 74.61708069 39.18974304 C73.22645955 46.46249633 71.40011628 53.58609021 69.4921875 60.73828125 C68.99146293 62.63149819 68.49073985 64.52471552 67.99010563 66.41795635 C67.29559692 69.04145076 66.59837724 71.66422147 65.90112305 74.2869873 C64.67556952 78.89819594 63.45297887 83.51018887 62.23243713 88.12272644 C61.58412338 90.57165755 60.93423093 93.02017139 60.28257751 95.46821594 C59.98879715 96.57674423 59.69501678 97.68527252 59.39233398 98.82739258 C59.00500343 100.28439323 59.00500343 100.28439323 58.60984802 101.77082825 C58.38668411 102.66114243 58.1635202 103.5514566 57.93359375 104.46875 C57.68839493 105.34484421 57.44319611 106.22093842 57.19056702 107.12358093 C56.62169358 109.81781982 56.62169358 109.81781982 59.36328125 112.6328125 C60.4982273 113.7997336 61.64766544 114.9526747 62.80859375 116.09375 C64.02716402 117.3466048 65.24329956 118.60183214 66.45703125 119.859375 C67.05612305 120.47490234 67.65521484 121.09042969 68.27246094 121.72460938 C72.09850625 125.74184449 75.47178821 130.14006729 78.93359375 134.46875 C79.96178876 135.71889168 80.99186641 136.96748643 82.0234375 138.21484375 C88.49640407 146.06048779 94.67584226 154.01384355 100.47412109 162.37304688 C102.15279289 164.783505 103.84984446 167.18055814 105.546875 169.578125 C112.70354831 179.72995598 119.63969051 189.98927125 126.30859375 200.46875 C126.97777832 201.52030273 127.64696289 202.57185547 128.33642578 203.65527344 C130.71695743 207.40092726 133.09526259 211.14799301 135.47363281 214.89501953 C136.78309338 216.9474784 138.10558228 218.99076328 139.43359375 221.03125 C140.12453125 222.10503906 140.81546875 223.17882812 141.52734375 224.28515625 C147.66726839 232.40859551 154.5441204 237.47614237 163.42578125 242.42602539 C165.20223885 243.41664723 166.96677778 244.42630523 168.73046875 245.43945312 C174.98212518 249.37850492 174.98212518 249.37850492 181.93359375 251.46875 C183.99209036 249.90881943 185.68788598 248.40870591 187.49609375 246.59375 C188.57192062 245.56010276 189.65008869 244.52888727 190.73046875 243.5 C191.26994141 242.98308594 191.80941406 242.46617187 192.36523438 241.93359375 C194.57075461 239.87364334 196.89285764 237.98197538 199.24609375 236.09375 C203.73160282 232.4820414 208.09547766 228.75446516 212.43359375 224.96875 C217.61619107 220.45062154 222.85834435 216.02947625 228.203125 211.703125 C231.25326183 209.20716181 234.2493778 206.6532769 237.24609375 204.09375 C242.29576128 199.78928779 247.46356106 195.66526954 252.70239258 191.59423828 C256.69572895 188.47767683 260.58609582 185.26318107 264.43359375 181.96875 C271.11001311 176.26238281 277.99598395 170.85243309 284.93359375 165.46875 C286.35174602 164.36481904 287.76970725 163.26064265 289.1875 162.15625 C292.9960885 159.19067253 296.80725257 156.22842438 300.61914062 153.26708984 C303.64472114 150.91620101 306.66917853 148.56387063 309.69335938 146.21118164 C311.18653351 145.0498059 312.68002307 143.88883559 314.17382812 142.72827148 C317.98066827 139.77001875 321.78205797 136.80517818 325.57421875 133.828125 C332.54829187 128.36136341 339.53694241 122.93616003 346.74609375 117.78125 C347.30264648 117.38325195 347.85919922 116.98525391 348.43261719 116.57519531 C349.9215895 115.52345361 351.42711212 114.49525488 352.93359375 113.46875 C353.77148438 112.89511719 354.609375 112.32148438 355.47265625 111.73046875 C359.7985988 109.51256487 364.20626457 109.70627755 368.93359375 110.46875 C371.68359375 112.53125 371.68359375 112.53125 372.93359375 115.46875 C372.7887988 121.57185735 370.6373627 124.5968685 366.43359375 128.71875 C365.32296323 129.86079957 364.21491224 131.00536303 363.109375 132.15234375 C362.56361816 132.71421387 362.01786133 133.27608398 361.45556641 133.85498047 C359.37519048 136.06083303 357.49834822 138.40147999 355.62109375 140.78125 C351.16673752 146.33494461 346.32910631 151.48230463 341.42456055 156.63598633 C335.58913496 162.77451074 330.04706531 169.14215159 324.55932617 175.59130859 C319.53076225 181.49993522 314.41139709 187.30018664 309.16796875 193.01953125 C306.63710369 195.79374872 304.16719984 198.61582121 301.703125 201.44921875 C298.15781287 205.49541383 294.5383647 209.47558622 290.93359375 213.46875 C288.68251374 215.96908454 286.43230159 218.47018798 284.18359375 220.97265625 C282.68876686 222.63097983 281.18878795 224.28467441 279.68359375 225.93359375 C275.85013692 230.14640308 272.13422829 234.40919969 268.55859375 238.84375 C264.39396006 243.99129549 259.98054234 248.85227388 255.484375 253.70703125 C251.26026103 258.28045939 247.19927127 262.98545681 243.15625 267.71875 C242.12378994 268.92716196 241.09123549 270.13549329 240.05859375 271.34375 C239.54530518 271.94445312 239.0320166 272.54515625 238.50317383 273.1640625 C234.0651115 278.34425463 229.53153821 283.42958865 224.93359375 288.46875 C227.7435176 291.42862338 230.64398139 293.77343659 233.99609375 296.09375 C265.23291109 318.66058749 279.41475955 352.95559634 285.53564453 389.93115234 C294.19389371 445.14209834 290.45726431 505.16719341 290.93359375 559.46875 C119.00359375 559.46875 -52.92640625 559.46875 -230.06640625 559.46875 C-230.06640625 551.63821742 -229.48570592 544.49142023 -228.44140625 536.78125 C-228.31035995 535.80957382 -228.31035995 535.80957382 -228.17666626 534.81826782 C-220.56555816 478.95329566 -204.10489233 426.33421569 -164.44775391 384.91308594 C-163.22132586 383.63073382 -162.00811138 382.33577339 -160.796875 381.0390625 C-152.1960188 372.07119388 -141.98977483 364.8859412 -132.06640625 357.46875 C-133.35933594 357.31019531 -134.65226562 357.15164063 -135.984375 356.98828125 C-156.18953194 354.34825496 -171.46208133 348.40917111 -185.06640625 332.46875 C-191.04916015 324.1813555 -194.18236998 315.1949137 -197.06640625 305.46875 C-197.46377142 304.19497748 -197.86219986 302.92153615 -198.26171875 301.6484375 C-201.5986899 290.65743461 -201.5986899 290.65743461 -201.06640625 284.46875 C-200.073369 282.79792542 -199.0732315 281.13130246 -198.06640625 279.46875 C-197.67514021 275.96395996 -197.67514021 275.96395996 -197.69140625 272.21875 C-197.45422819 265.51745093 -196.05711105 260.87209367 -192.06640625 255.46875 C-191.07640625 254.0765625 -191.07640625 254.0765625 -190.06640625 252.65625 C-188.06640625 250.46875 -188.06640625 250.46875 -185.55859375 248.80859375 C-182.3661585 245.81130737 -181.92405705 242.98175398 -181.19140625 238.84375 C-178.11215963 224.5588846 -168.86860368 217.06717218 -157.81640625 208.28125 C-156.23031553 207.01385975 -154.64665809 205.74341307 -153.06640625 204.46875 C-152.49148438 204.00597656 -151.9165625 203.54320312 -151.32421875 203.06640625 C-149.03981038 201.04657625 -148.10707092 199.63510548 -147.37890625 196.65625 C-148.12069523 193.21704652 -148.7721278 192.57331459 -151.06640625 190.09375 C-154.33009321 186.10308064 -154.67319227 182.34690127 -154.69140625 177.34375 C-154.706875 176.3220874 -154.706875 176.3220874 -154.72265625 175.27978516 C-154.47752427 166.28650579 -148.03386223 161.08455931 -141.98828125 155.1953125 C-138.69696625 152.12400519 -135.28453248 149.31722417 -131.73046875 146.55859375 C-122.8478935 139.59059117 -114.41257526 132.0636272 -106.06640625 124.46875 C-103.60781049 122.26038289 -101.14725624 120.05427632 -98.68359375 117.8515625 C-96.85259149 116.18453059 -95.04712309 114.48921604 -93.26171875 112.7734375 C-88.0278087 107.76107325 -82.71975004 103.29300559 -76.62890625 99.34375 C-76.04979492 98.96541016 -75.47068359 98.58707031 -74.87402344 98.19726562 C-71.64062183 96.17709499 -68.85951794 94.93668527 -65.06640625 94.46875 C-65.06640625 93.80875 -65.06640625 93.14875 -65.06640625 92.46875 C-66.71640625 92.46875 -68.36640625 92.46875 -70.06640625 92.46875 C-72.08560445 86.30794106 -72.81894621 80.19664163 -73.546875 73.76953125 C-73.82586573 71.48613105 -74.10651435 69.20293292 -74.38867188 66.91992188 C-74.82727643 63.33991377 -75.25629064 59.7599463 -75.6574707 56.17553711 C-76.04979009 52.70264323 -76.48220688 49.23670617 -76.921875 45.76953125 C-77.03258835 44.69657303 -77.1433017 43.62361481 -77.25737 42.5181427 C-77.80400982 37.18836106 -77.80400982 37.18836106 -80.71035767 32.94613647 C-82.81575808 31.70758953 -82.81575808 31.70758953 -86.06640625 30.46875 C-88.7157111 27.12832214 -88.42895345 23.60178804 -88.06640625 19.46875 C-86.4150132 15.9300506 -85.35035396 14.65804847 -82.06640625 12.46875 C-77.47369422 11.72909975 -74.04178536 11.85913806 -70.06640625 14.34375 C-67.47159935 17.10073233 -67.10530456 17.95334743 -66.81640625 21.78125 C-67.06640625 25.46875 -67.06640625 25.46875 -68.69140625 28.15625 C-69.14515625 28.919375 -69.59890625 29.6825 -70.06640625 30.46875 C-67.49411078 37.60102381 -59.73373183 42.81335232 -54.1484375 47.60546875 C-51.00714236 50.41672163 -48.08188515 53.43124293 -45.14453125 56.453125 C-43.18757994 58.35122064 -41.39587808 60.04834035 -39.06640625 61.46875 C-35.14574219 60.16186198 -33.95576079 57.75523996 -31.75390625 54.46875 C-26.16283342 46.37085923 -19.90895617 38.88906398 -13.61083984 31.33789062 C-10.67418321 27.7838212 -7.85075463 24.14283376 -5.06640625 20.46875 C-5.72640625 20.46875 -6.38640625 20.46875 -7.06640625 20.46875 C-10.2236703 15.63418942 -12.04046863 12.42135343 -11.06640625 6.46875 C-8.111974 1.39081957 -5.74532084 -0.4344288 0 0 Z "
        fill="#09233B" transform="translate(484.06640625,127.53125)" />
    <path
        d="M0 0 C2.75 2.0625 2.75 2.0625 4 5 C3.85520505 11.10310735 1.70376895 14.1281185 -2.5 18.25 C-3.61063052 19.39204957 -4.71868151 20.53661303 -5.82421875 21.68359375 C-6.36997559 22.24546387 -6.91573242 22.80733398 -7.47802734 23.38623047 C-9.55840327 25.59208303 -11.43524553 27.93272999 -13.3125 30.3125 C-17.76685623 35.86619461 -22.60448744 41.01355463 -27.5090332 46.16723633 C-33.34445879 52.30576074 -38.88652844 58.67340159 -44.37426758 65.12255859 C-49.4028315 71.03118522 -54.52219666 76.83143664 -59.765625 82.55078125 C-62.29649006 85.32499872 -64.76639391 88.14707121 -67.23046875 90.98046875 C-70.77578088 95.02666383 -74.39522905 99.00683622 -78 103 C-80.25108001 105.50033454 -82.50129216 108.00143798 -84.75 110.50390625 C-86.24482689 112.16222983 -87.7448058 113.81592441 -89.25 115.46484375 C-93.08345683 119.67765308 -96.79936546 123.94044969 -100.375 128.375 C-104.53963369 133.52254549 -108.95305141 138.38352388 -113.44921875 143.23828125 C-117.67333272 147.81170939 -121.73432248 152.51670681 -125.77734375 157.25 C-126.80984183 158.45837948 -127.84239546 159.6667115 -128.875 160.875 C-129.39481445 161.4836792 -129.91462891 162.0923584 -130.45019531 162.71948242 C-133.47918656 166.25662058 -136.55164023 169.74409531 -139.6875 173.1875 C-142.71712868 176.52227114 -145.60608092 179.93287639 -148.4375 183.4375 C-151.51336588 187.24087503 -154.68753166 190.90082652 -158 194.5 C-162.03633055 198.89028569 -165.84030529 203.4117562 -169.5859375 208.05078125 C-172.3386198 211.413686 -175.16185219 214.70926459 -178 218 C-182.31837456 223.01156414 -186.54907341 228.08219188 -190.71875 233.21875 C-193.29843198 236.36384173 -195.92646255 239.46467168 -198.5625 242.5625 C-202.37732427 247.05175752 -206.11311142 251.59020021 -209.7734375 256.20703125 C-212.65760883 259.82489529 -215.57888802 263.41194092 -218.5 267 C-222.1002904 271.42418131 -225.69365046 275.85283768 -229.25 280.3125 C-234.16569172 286.47514915 -239.16889631 292.56621055 -244.18359375 298.6484375 C-248.74431664 304.19284572 -253.21200928 309.80013816 -257.63232422 315.45629883 C-261.20311593 320.01377289 -264.83915521 324.51465521 -268.5 329 C-273.00697505 334.52256617 -277.44784502 340.08968832 -281.83374023 345.70874023 C-285.35375146 350.20663846 -288.94856888 354.63985702 -292.5625 359.0625 C-297.29263382 364.85359842 -301.88467227 370.72512744 -306.41796875 376.671875 C-309.30647544 380.4270464 -312.31000414 384.08581667 -315.3125 387.75 C-319.81904293 393.2532842 -324.20334151 398.83144648 -328.5 404.5 C-353.05166947 436.82066779 -353.05166947 436.82066779 -361 440 C-365.77815339 440.53090593 -367.93590434 440.56334476 -372.1875 438.3125 C-375.01152779 435.9905216 -377.50150351 433.6728102 -380 431 C-380.97066406 429.96746094 -380.97066406 429.96746094 -381.9609375 428.9140625 C-387.60128012 422.79874365 -392.67952256 416.33503669 -397.6953125 409.71191406 C-399.89362878 406.82744667 -402.13275599 403.97537808 -404.375 401.125 C-404.82915283 400.5472583 -405.28330566 399.9695166 -405.7512207 399.37426758 C-409.16369954 395.04214752 -412.61023294 390.73793433 -416.0625 386.4375 C-420.54463475 380.85126796 -424.94354087 375.2108579 -429.296875 369.5234375 C-438.35550748 357.69498037 -447.49379092 345.9208334 -456.94921875 334.40625 C-462.96993201 327.060382 -468.82735654 319.63868874 -474.47729492 312.00366211 C-478.04619567 307.20588334 -481.76357238 302.55457186 -485.5625 297.9375 C-489.92312032 292.60916599 -494.22365756 287.24357165 -498.375 281.75 C-498.85783447 281.12988037 -499.34066895 280.50976074 -499.83813477 279.87084961 C-503.03268303 275.57633392 -503.03268303 275.57633392 -502.88525391 272.9765625 C-501.67517353 270.27473935 -500.28502286 269.65034911 -497.6875 268.265625 C-496.33338013 267.53363892 -496.33338013 267.53363892 -494.9519043 266.78686523 C-493.97777588 266.27969971 -493.00364746 265.77253418 -492 265.25 C-490.51270386 264.45928101 -490.51270386 264.45928101 -488.99536133 263.65258789 C-455.34508776 245.91217448 -455.34508776 245.91217448 -445 249 C-435.0199952 253.43030229 -428.11544523 261.44030041 -421.14453125 269.5703125 C-418.16551905 272.94544108 -415.08057563 276.21768898 -412 279.5 C-407.86617058 283.90798735 -403.7774639 288.33228816 -399.8359375 292.9140625 C-396.76404552 296.40425467 -393.58401049 299.79512124 -390.41943359 303.20117188 C-387.02276621 306.8652342 -383.71066092 310.58468046 -380.5 314.4140625 C-378.07520092 316.97778237 -376.12774149 318.70153575 -372.66796875 319.6171875 C-368.32023694 318.61141645 -366.16192899 315.40961166 -363.3125 312.125 C-362.06921489 310.73953199 -360.82441634 309.35542064 -359.578125 307.97265625 C-358.97033203 307.29219238 -358.36253906 306.61172852 -357.73632812 305.91064453 C-355.42658505 303.3690178 -353.01533872 300.96643242 -350.5625 298.5625 C-347.16675916 295.21085969 -344.00792795 291.75395824 -340.91015625 288.12890625 C-337.71283752 284.56543241 -334.26779636 281.24973056 -330.84375 277.90625 C-328.74413036 275.8125199 -326.80085472 273.62915168 -324.875 271.375 C-319.57847164 265.25828949 -313.72613905 259.66948478 -307.97021484 253.99072266 C-302.65145397 248.73684555 -297.41802945 243.47510406 -292.55615234 237.78759766 C-290.02070504 234.87505527 -287.30196346 232.15679563 -284.5625 229.4375 C-283.78036133 228.64956055 -283.78036133 228.64956055 -282.98242188 227.84570312 C-279.47637869 224.34820085 -275.82482076 221.06903523 -272.08178711 217.82788086 C-268.47343724 214.65962526 -264.99065389 211.35922867 -261.5 208.0625 C-260.79230469 207.39798828 -260.08460938 206.73347656 -259.35546875 206.04882812 C-255.09815855 202.03668296 -250.92410436 197.95630913 -246.81738281 193.79003906 C-244.3955405 191.404635 -241.84164542 189.19645482 -239.265625 186.98046875 C-236.46683642 184.53394149 -233.73313546 182.01919722 -231 179.5 C-227.04026098 175.85436011 -223.04515277 172.2587821 -218.98046875 168.73046875 C-214.02419942 164.39984289 -209.14754237 159.97636145 -204.3046875 155.51953125 C-198.90392153 150.55728902 -193.39048356 145.82082999 -187.68359375 141.21484375 C-185.05291443 139.04367173 -182.52057576 136.79758643 -180 134.5 C-175.80270966 130.67829137 -171.46289769 127.08525811 -167.05078125 123.515625 C-163.47943252 120.57074845 -159.98791208 117.54276802 -156.5 114.5 C-151.31731818 109.98196448 -146.07525386 105.56072986 -140.73046875 101.234375 C-137.68033192 98.73841181 -134.68421595 96.1845269 -131.6875 93.625 C-126.63783247 89.32053779 -121.47003269 85.19651954 -116.23120117 81.12548828 C-112.2378648 78.00892683 -108.34749793 74.79443107 -104.5 71.5 C-97.82358064 65.79363281 -90.9376098 60.38368309 -84 55 C-82.58184773 53.89606904 -81.1638865 52.79189265 -79.74609375 51.6875 C-75.93750525 48.72192253 -72.12634118 45.75967438 -68.31445312 42.79833984 C-65.28887261 40.44745101 -62.26441522 38.09512063 -59.24023438 35.74243164 C-57.74706024 34.5810559 -56.25357068 33.42008559 -54.75976562 32.25952148 C-50.95292548 29.30126875 -47.15153578 26.33642818 -43.359375 23.359375 C-36.38530188 17.89261341 -29.39665134 12.46741003 -22.1875 7.3125 C-21.63094727 6.91450195 -21.07439453 6.51650391 -20.50097656 6.10644531 C-19.01200425 5.05470361 -17.50648163 4.02650488 -16 3 C-15.16210938 2.42636719 -14.32421875 1.85273438 -13.4609375 1.26171875 C-9.13499495 -0.95618513 -4.72732918 -0.76247245 0 0 Z "
        fill="#F8C918" transform="translate(853,238)" />
    <path
        d="M0 0 C10.4822423 9.59797581 20.71276973 24.11164672 21.625 38.6875 C21.81398504 43.47754393 19.95122984 45.8904292 16.83300781 49.27954102 C13.70301309 52.21735039 10.22627095 54.41156797 6.5625 56.625 C5.74555664 57.1300708 4.92861328 57.6351416 4.08691406 58.15551758 C-4.33061462 63.30773473 -12.94203727 68.12083812 -21.55859375 72.9296875 C-27.00509018 75.97957291 -32.35985714 79.16622558 -37.66113281 82.46166992 C-41.79248384 85 -41.79248384 85 -44 85 C-43.69191406 85.56460938 -43.38382812 86.12921875 -43.06640625 86.7109375 C-36.74041898 100.28979662 -37.62942537 120.26945968 -42 134.18359375 C-47.60944658 148.66851337 -58.17968297 157.93628482 -72.19921875 164.29296875 C-80.58972354 167.58728842 -91.72462633 169.298535 -100.25 165.625 C-111.21739173 158.96454536 -119.88225353 147.06257494 -124 135 C-124 134.01 -124 133.02 -124 132 C-114.5561096 127.24932085 -101.10645512 128.96154856 -91.41088867 132.1015625 C-89.16815162 132.89989202 -86.94318358 133.73184828 -84.72265625 134.58984375 C-79.85932405 136.43209236 -75.86435437 137.13152472 -70.6875 137.0625 C-69.80449219 137.05347656 -68.92148437 137.04445313 -68.01171875 137.03515625 C-67.34785156 137.02355469 -66.68398438 137.01195312 -66 137 C-70.6208317 134.66289128 -75.2516763 132.34775926 -79.89306641 130.05175781 C-81.71248329 129.14352514 -83.51960304 128.21073497 -85.32421875 127.2734375 C-97.05337155 121.41637016 -109.96505397 118.84096426 -123 118 C-123.81432153 109.72106441 -121.3656293 104.93554408 -117 98 C-116.62101562 97.36449219 -116.24203125 96.72898437 -115.8515625 96.07421875 C-114.43253373 93.78674437 -113.31142568 92.18421519 -110.97265625 90.80078125 C-107.35630634 87.49951926 -107.66611267 82.41568697 -107.00390625 77.76171875 C-104.58487796 68.69742207 -96.8311995 64.85519968 -89.375 60 C-88.34503906 59.31421875 -87.31507813 58.6284375 -86.25390625 57.921875 C-66.02918997 44.59137018 -66.02918997 44.59137018 -58 46 C-55.5 47.8125 -55.5 47.8125 -54 50 C-54 50.99 -54 51.98 -54 53 C-45.5614158 49.2171864 -39.17965373 45.50851104 -33.5625 38.10546875 C-29.0285654 32.25324338 -24.44040776 30.62549677 -17.19921875 29.60546875 C-14.79955849 29.3509079 -12.40844848 29.14581421 -10 29 C-11.14990595 28.14368706 -12.32120589 27.31608823 -13.5 26.5 C-14.47453125 25.80390625 -14.47453125 25.80390625 -15.46875 25.09375 C-21.10856809 22.65679157 -27.95108775 24.11899526 -33.859375 25.05859375 C-34.57103821 25.1672023 -35.28270142 25.27581085 -36.01593018 25.38771057 C-37.50535372 25.61611871 -38.99434766 25.84734486 -40.48291016 26.08129883 C-42.75722737 26.43863555 -45.03272853 26.78743795 -47.30859375 27.13476562 C-48.76309659 27.35888392 -50.21752643 27.58347658 -51.671875 27.80859375 C-52.68601471 27.96490517 -52.68601471 27.96490517 -53.72064209 28.12437439 C-56.85888716 28.6190676 -59.92663568 29.19815664 -63 30 C-66.39054125 30.37494137 -69.61744764 30.49148197 -73 30 C-76.51301852 26.7969537 -76.43271299 22.70680628 -76.69140625 18.18359375 C-75.6310297 14.83472093 -72.94361161 13.61761305 -70 12 C-67.35729685 10.86883482 -64.6608981 9.97036668 -61.92578125 9.08984375 C-61.16130173 8.83626602 -60.3968222 8.58268829 -59.60917664 8.32142639 C-57.99776088 7.78874791 -56.38491801 7.26036925 -54.77075195 6.73608398 C-52.33427552 5.94457396 -49.90223095 5.14055316 -47.47070312 4.33398438 C-10.71259803 -7.79650329 -10.71259803 -7.79650329 0 0 Z "
        fill="#1A7AC2" transform="translate(421,285)" />
    <path
        d="M0 0 C3.0216321 0.73251687 4.80104733 2.27158096 6.93359375 4.46875 C8.54930318 7.70016886 8.5222104 10.97586002 7.93359375 14.46875 C6.52952301 17.04920434 5.13659964 18.41944219 2.93359375 20.46875 C1.94359375 20.46875 0.95359375 20.46875 -0.06640625 20.46875 C4.80581081 28.89643092 10.28095043 36.80183607 15.92382812 44.7265625 C20.65255573 51.4365499 24.90652542 58.31599589 28.93359375 65.46875 C34.76867962 61.18174814 40.42428817 56.69693899 46.06152344 52.15551758 C51.43507561 47.83724529 56.90473524 43.66010896 62.421875 39.52734375 C65.09812648 37.53818124 65.09812648 37.53818124 66.93359375 34.46875 C66.43859375 33.80875 65.94359375 33.14875 65.43359375 32.46875 C63.56811286 28.73778823 63.06257845 25.52293028 63.93359375 21.46875 C65.68967021 18.45090009 67.7629581 16.05406783 70.93359375 14.46875 C75.12850943 14.06539272 77.45859465 14.22676933 81.24609375 16.15625 C84.12751701 18.6356142 85.16137122 19.77924236 85.93359375 23.46875 C85.85725554 27.66735176 85.20575092 30.52595965 82.68359375 33.84375 C79.7881444 36.60758802 78.72661431 36.92143495 74.93359375 37.46875 C74.82914444 38.03586197 74.72469513 38.60297394 74.61708069 39.18727112 C73.22116465 46.4819863 71.39650052 53.63198472 69.4921875 60.80859375 C69.16444839 62.05250381 68.83670929 63.29641388 68.4990387 64.57801819 C67.81081445 67.18961804 67.12067898 69.80070189 66.42895508 72.41137695 C65.54301986 75.75514725 64.6605766 79.09982635 63.77937222 82.44484615 C62.93489001 85.64975814 62.0885621 88.85418095 61.2421875 92.05859375 C60.9255162 93.25854477 60.60884491 94.45849579 60.28257751 95.69480896 C59.98879715 96.80348831 59.69501678 97.91216766 59.39233398 99.05444336 C59.13411362 100.03021835 58.87589325 101.00599335 58.60984802 102.01133728 C58.10492805 103.8461453 57.53537981 105.66339181 56.93359375 107.46875 C53.49780112 106.85474904 50.21174803 105.96983736 46.87353516 104.95849609 C24.91044089 98.41994426 1.65227671 94.29445684 -21.06640625 91.46875 C-22.06285156 91.33855469 -23.05929687 91.20835937 -24.0859375 91.07421875 C-31.01643165 90.3306035 -37.97846409 90.37105776 -44.94140625 90.34375 C-45.92206055 90.33899658 -46.90271484 90.33424316 -47.91308594 90.3293457 C-53.44961015 90.34168362 -58.93154911 90.56645353 -64.45361328 90.97705078 C-65.69708527 91.06866486 -66.94055725 91.16027893 -68.22171021 91.25466919 C-69.1604599 91.32531586 -70.09920959 91.39596252 -71.06640625 91.46875 C-71.15108658 90.7635321 -71.23576691 90.05831421 -71.32301331 89.33172607 C-72.12784188 82.67701181 -72.96323765 76.02693297 -73.83293247 69.38036728 C-74.27896428 65.96325751 -74.71315179 62.54550614 -75.12036133 59.12353516 C-75.58933998 55.18692099 -76.10968646 51.2579254 -76.6328125 47.328125 C-76.77167374 46.10196472 -76.91053497 44.87580444 -77.05360413 43.61248779 C-77.66152405 37.68322602 -77.66152405 37.68322602 -80.72824097 32.84997559 C-82.82291825 31.60660596 -82.82291825 31.60660596 -86.06640625 30.46875 C-88.7157111 27.12832214 -88.42895345 23.60178804 -88.06640625 19.46875 C-86.4150132 15.9300506 -85.35035396 14.65804847 -82.06640625 12.46875 C-77.47369422 11.72909975 -74.04178536 11.85913806 -70.06640625 14.34375 C-67.47159935 17.10073233 -67.10530456 17.95334743 -66.81640625 21.78125 C-67.06640625 25.46875 -67.06640625 25.46875 -68.69140625 28.15625 C-69.37203125 29.3009375 -69.37203125 29.3009375 -70.06640625 30.46875 C-67.49411078 37.60102381 -59.73373183 42.81335232 -54.1484375 47.60546875 C-51.00714236 50.41672163 -48.08188515 53.43124293 -45.14453125 56.453125 C-43.18757994 58.35122064 -41.39587808 60.04834035 -39.06640625 61.46875 C-35.14574219 60.16186198 -33.95576079 57.75523996 -31.75390625 54.46875 C-26.16283342 46.37085923 -19.90895617 38.88906398 -13.61083984 31.33789062 C-10.67418321 27.7838212 -7.85075463 24.14283376 -5.06640625 20.46875 C-5.72640625 20.46875 -6.38640625 20.46875 -7.06640625 20.46875 C-10.2236703 15.63418942 -12.04046863 12.42135343 -11.06640625 6.46875 C-8.111974 1.39081957 -5.74532084 -0.4344288 0 0 Z "
        fill="#F8C917" transform="translate(484.06640625,127.53125)" />
    <path
        d="M0 0 C2.38987457 1.40195043 4.09808753 2.66058753 6.0625 4.625 C6.3925 2.975 6.7225 1.325 7.0625 -0.375 C12.6725 -0.375 18.2825 -0.375 24.0625 -0.375 C24.15320716 9.21379299 24.22644891 18.80229665 24.26974869 28.39142323 C24.29054024 32.84501519 24.31870175 37.29829602 24.36425781 41.75170898 C24.40801906 46.05706996 24.43170037 50.36213343 24.44200897 54.66769981 C24.44934644 56.30260584 24.46367348 57.93749731 24.48542023 59.57227516 C24.64016688 71.69770145 23.92589869 82.68167691 15.1171875 91.90625 C11.46514126 94.96119362 7.45383676 96.85267944 3.0625 98.625 C1.99 99.058125 0.9175 99.49125 -0.1875 99.9375 C-13.07479432 102.30017063 -24.79948031 100.5139375 -35.9375 93.625 C-39.59912167 90.72621618 -42.43709219 88.19294447 -43.875 83.6875 C-43.895625 83.006875 -43.91625 82.32625 -43.9375 81.625 C-38.10659847 79.14146787 -32.36315882 77.21339196 -25.9375 77.625 C-23.5625 79.4375 -23.5625 79.4375 -21.9375 81.625 C-17.25626392 84.56366142 -12.27534203 84.20744409 -6.9375 83.625 C-2.131152 82.31346386 0.39894079 80.68254749 3.0625 76.4375 C4.21945272 72.02661774 4.33949201 68.14920278 4.0625 63.625 C2.515625 64.800625 2.515625 64.800625 0.9375 66 C-5.71645646 70.67897735 -11.94348047 71.34668232 -19.9375 70.625 C-29.37138603 68.60555877 -36.47848416 63.53422527 -41.9375 55.625 C-47.88312624 45.00354207 -48.72527562 33.09446217 -46.23828125 21.3125 C-43.1798257 12.02098947 -37.45225516 4.53976676 -28.9375 -0.375 C-20.28031094 -3.97391717 -8.48546108 -4.19937417 0 0 Z "
        fill="#F2F2F1" transform="translate(841.9375,743.375)" />
    <path
        d="M0 0 C7.3287162 4.95481942 12.07752276 12.26463587 14.2890625 20.79296875 C16.19599881 32.58130233 15.73862365 45.4485626 8.80859375 55.56640625 C0.78849462 65.07274753 -7.75378969 68.82008039 -19.9296875 69.96875 C-29.46900877 70.38940286 -38.0275508 67.50930945 -45.45703125 61.48046875 C-53.47030464 53.53748723 -57.12237498 43.69430366 -57.48828125 32.58984375 C-57.35664312 21.83939631 -54.56478321 12.55681364 -47.30078125 4.58984375 C-34.34420669 -7.99654297 -15.36467935 -8.82195376 0 0 Z "
        fill="#F1F1F1" transform="translate(696.23828125,746.28515625)" />
    <path
        d="M0 0 C6.27 0 12.54 0 19 0 C19.495 20.295 19.495 20.295 20 41 C27.71153518 31.73057892 35.31742962 22.44019429 42.55932617 12.79907227 C43.54664083 11.48912043 44.54531284 10.18763723 45.55615234 8.89575195 C47.02888426 7.01376285 47.02888426 7.01376285 48.30712891 4.96948242 C50.43034778 1.94280679 51.83447638 0.25151955 55.53417969 -0.546875 C58.51282363 -0.68905371 61.39847599 -0.61225076 64.375 -0.4375 C65.39722656 -0.40591797 66.41945313 -0.37433594 67.47265625 -0.34179688 C69.98475434 -0.25962544 72.49086534 -0.14484348 75 0 C66.29902947 11.62900413 57.39725538 23.07474991 48.29394531 34.390625 C46.52523339 36.59050217 44.76232537 38.79500522 43 41 C44.29383736 43.6888542 45.70476473 46.18070178 47.36328125 48.66015625 C47.8315332 49.36188965 48.29978516 50.06362305 48.78222656 50.78662109 C49.2872168 51.53766113 49.79220703 52.28870117 50.3125 53.0625 C50.8394043 53.84963379 51.36630859 54.63676758 51.90917969 55.44775391 C56.36210311 62.08515508 60.87435656 68.68149562 65.39453125 75.27319336 C78 93.66065227 78 93.66065227 78 95 C74.33541373 95.32236456 70.67447572 95.51560776 67 95.6875 C65.97003906 95.77966797 64.94007813 95.87183594 63.87890625 95.96679688 C59.31346825 96.1267326 56.25512676 96.14086143 52.77685547 92.97924805 C50.64061479 90.08217989 48.81734688 87.10675587 47 84 C45.90447906 82.33249119 44.80874771 80.66507472 43.70050049 79.0059967 C41.81181283 76.16942081 39.97170706 73.30150879 38.125 70.4375 C36.98836405 68.67634145 35.85080028 66.91581934 34.71017456 65.15724182 C33.69121848 63.58614794 32.67582221 62.01274696 31.66064453 60.43920898 C30.0824683 57.95809074 30.0824683 57.95809074 28 56 C27.50628906 56.63808594 27.01257813 57.27617188 26.50390625 57.93359375 C25.86324219 58.75988281 25.22257813 59.58617187 24.5625 60.4375 C23.92441406 61.26121094 23.28632812 62.08492187 22.62890625 62.93359375 C21 65 21 65 20 66 C19.84141158 68.14386657 19.74870702 70.29266838 19.68359375 72.44140625 C19.64169922 73.74658203 19.59980469 75.05175781 19.55664062 76.39648438 C19.51682392 77.7851533 19.47711175 79.17382522 19.4375 80.5625 C19.39432011 81.95509183 19.350706 83.34767028 19.30664062 84.74023438 C19.20014194 88.16002549 19.09952944 91.57999896 19 95 C12.73 95 6.46 95 0 95 C0 63.65 0 32.3 0 0 Z "
        fill="#F2F2F1" transform="translate(562,719)" />
    <path
        d="M0 0 C11.03021665 -0.32848608 20.36601915 1.76589374 29.4921875 7.98828125 C33.37347912 11.65394556 36.23871842 15.97642854 37.7421875 21.11328125 C37.7421875 23.42328125 37.7421875 25.73328125 37.7421875 28.11328125 C31.4721875 28.11328125 25.2021875 28.11328125 18.7421875 28.11328125 C17.7521875 25.80328125 16.7621875 23.49328125 15.7421875 21.11328125 C11.16989984 16.82676157 6.46564524 16.83115471 0.4765625 16.89453125 C-3.05726799 17.17723769 -5.37978409 18.04700445 -8.2578125 20.11328125 C-11.09050444 23.84728427 -10.44225718 27.89994515 -10.0703125 32.36328125 C-9.3808439 34.31673983 -9.3808439 34.31673983 -7.1953125 35.17578125 C-6.2259375 35.48515625 -5.2565625 35.79453125 -4.2578125 36.11328125 C-3.08347656 36.56832031 -1.90914062 37.02335938 -0.69921875 37.4921875 C4.86268332 39.59210874 10.58619958 41.13233907 16.3203125 42.6875 C25.47724621 45.31379847 33.6224798 49.65379278 38.4921875 58.17578125 C41.69287685 65.69740122 41.44374334 72.86622848 38.91015625 80.5859375 C35.80874908 87.29700919 30.59477928 92.32447053 23.89453125 95.359375 C12.24299705 99.4405839 -2.43904886 100.60251511 -14.1328125 96.05078125 C-21.34261301 92.3627709 -28.54387938 87.05114345 -31.2578125 79.11328125 C-31.83472335 75.7504334 -32.07048629 72.5319846 -32.2578125 69.11328125 C-25.6578125 69.11328125 -19.0578125 69.11328125 -12.2578125 69.11328125 C-11.2678125 72.57828125 -11.2678125 72.57828125 -10.2578125 76.11328125 C-5.54522699 80.59023748 -2.2564121 81.31515084 4.0546875 81.36328125 C5.37082031 81.3890625 6.68695313 81.41484375 8.04296875 81.44140625 C11.89739606 81.09951407 13.69864535 80.42793122 16.7421875 78.11328125 C19.22813809 75.13014054 19.72073048 73.51381222 19.9296875 69.61328125 C18.45949194 65.28007328 17.0811854 64.58686232 13.28540039 62.34472656 C7.34797631 59.46977532 0.821705 58.03045913 -5.52734375 56.328125 C-14.30063202 53.82000875 -21.84022775 50.52814756 -27.546875 43.15625 C-31.60833876 34.4751681 -32.88729565 28.06867248 -29.6328125 18.92578125 C-25.24382392 9.25487192 -19.07010396 5.04350895 -9.2578125 1.11328125 C-6.06159632 0.34178079 -3.2569724 0.16341211 0 0 Z "
        fill="#F2F2F1" transform="translate(173.2578125,716.88671875)" />
    <path
        d="M0 0 C9.61300471 -0.56032086 19.63775292 2.84012466 26.953125 9.05078125 C35.80789396 19.08143503 35.89453125 29.13401956 35.89453125 42.25 C20.05453125 42.25 4.21453125 42.25 -12.10546875 42.25 C-9.79334975 51.49635632 -9.79334975 51.49635632 -4.10546875 57.25 C-0.16336091 59.22105392 4.59819026 58.70383884 8.89453125 58.25 C12.05023334 56.96456923 14.33428881 55.37048487 15.89453125 52.25 C21.83453125 52.25 27.77453125 52.25 33.89453125 52.25 C32.70109648 60.60404338 30.173717 64.71674956 23.828125 69.9296875 C15.81854854 75.39885284 6.2708447 75.98886599 -3.10546875 75.25 C-11.77632898 73.41960128 -19.4873159 70.13612159 -24.85546875 62.88671875 C-30.09767891 54.58235218 -31.46726228 47.12444788 -31.48046875 37.4375 C-31.50496094 36.50357422 -31.52945312 35.56964844 -31.5546875 34.60742188 C-31.59326597 25.34215893 -28.75862295 17.32344628 -22.9296875 10.0703125 C-16.45117096 3.60566859 -8.85382363 1.05128889 0 0 Z "
        fill="#F2F2F1" transform="translate(447.10546875,740.75)" />
    <path
        d="M0 0 C6.6 0 13.2 0 20 0 C25.28 14.85 30.56 29.7 36 45 C37.68848619 42.46727071 38.60795934 40.61482661 39.60400391 37.80395508 C39.90416412 36.96331009 40.20432434 36.1226651 40.51358032 35.25654602 C40.83136444 34.35333115 41.14914856 33.45011627 41.4765625 32.51953125 C41.80667328 31.59154221 42.13678406 30.66355316 42.47689819 29.70744324 C43.53013822 26.74382018 44.57763197 23.77820273 45.625 20.8125 C46.3381641 18.80260036 47.05170123 16.79283305 47.765625 14.78320312 C49.51474858 9.85699358 51.2587214 4.92898771 53 0 C59.27 0 65.54 0 72 0 C69.29289233 9.74757086 65.6502632 19.11425684 62.0625 28.5625 C60.70965135 32.13574462 59.35965413 35.71005539 58.01171875 39.28515625 C57.67344055 40.18219269 57.33516235 41.07922913 56.9866333 42.00344849 C54.77827427 47.87854812 52.62660311 53.77146279 50.51953125 59.68359375 C50.24973953 60.4380629 49.97994781 61.19253204 49.70198059 61.96986389 C48.43818016 65.50663452 47.18406999 69.04633828 45.94555664 72.59204102 C42.18280897 83.22992227 38.24664939 92.07801332 28.265625 98.03515625 C21.93985025 100.94122799 14.80994035 100.48048426 8 100 C7 99 7 99 6.90234375 95.62109375 C6.90901631 94.22652923 6.92097468 92.83198257 6.9375 91.4375 C6.94201172 90.72658203 6.94652344 90.01566406 6.95117188 89.28320312 C6.96299136 87.52209987 6.98092737 85.76103964 7 84 C7.89203125 83.91363281 8.7840625 83.82726562 9.703125 83.73828125 C10.87359375 83.59777344 12.0440625 83.45726562 13.25 83.3125 C14.41015625 83.18488281 15.5703125 83.05726563 16.765625 82.92578125 C20.70445401 81.7983628 21.81316287 80.38959755 24 77 C25.86906719 73.26186562 25.4680617 68.88877993 24.48248291 64.91165161 C23.74099798 62.69484997 22.92510543 60.52327235 22.0703125 58.34765625 C21.61089516 57.1328231 21.61089516 57.1328231 21.14219666 55.89344788 C20.14921709 53.27805762 19.13749794 50.67038854 18.125 48.0625 C17.43837879 46.26519022 16.75275525 44.46749899 16.06811523 42.66943359 C11.76695989 31.41030812 7.36882766 20.18696079 2.79541016 9.03540039 C2.42077637 8.11879639 2.04614258 7.20219238 1.66015625 6.2578125 C1.33668213 5.4755127 1.01320801 4.69321289 0.67993164 3.88720703 C0 2 0 2 0 0 Z "
        fill="#F2F2F1" transform="translate(484,743)" />
    <path
        d="M0 0 C1.31255587 0.71281124 2.60810148 1.45887996 3.875 2.25 C5.23625 3.054375 5.23625 3.054375 6.625 3.875 C12.53097846 10.10908838 15.00993058 17.95242164 14.98852539 26.4074707 C14.98841209 27.90846062 14.98841209 27.90846062 14.98829651 29.43977356 C14.98313522 30.5076561 14.97797394 31.57553864 14.97265625 32.67578125 C14.9712413 33.77850876 14.96982635 34.88123627 14.96836853 36.01737976 C14.96278004 39.53244767 14.95022959 43.04745141 14.9375 46.5625 C14.93248352 48.94856679 14.92792087 51.33463457 14.92382812 53.72070312 C14.91281437 59.56382673 14.89555758 65.40690249 14.875 71.25 C8.605 71.25 2.335 71.25 -4.125 71.25 C-4.1343457 69.89841797 -4.14369141 68.54683594 -4.15332031 67.15429688 C-4.19335046 62.11458007 -4.25914588 57.07546535 -4.33251953 52.03613281 C-4.36065367 49.85977951 -4.3819056 47.68332547 -4.39599609 45.50683594 C-4.41753006 42.36861882 -4.46423506 39.23160337 -4.515625 36.09375 C-4.51685364 35.12884644 -4.51808228 34.16394287 -4.51934814 33.1697998 C-4.64587906 27.26407604 -5.34205456 22.00554377 -9.125 17.25 C-13.61576646 14.55490663 -18.01524024 14.58911625 -23.125 15.25 C-27.25171355 17.31335678 -29.42607434 18.9949119 -31.125 23.25 C-31.44852812 25.58980541 -31.44852812 25.58980541 -31.44384766 28.11035156 C-31.46371735 29.07104553 -31.48358704 30.0317395 -31.50405884 31.02154541 C-31.52138565 32.56548981 -31.52138565 32.56548981 -31.5390625 34.140625 C-31.55842865 35.20037537 -31.5777948 36.26012573 -31.5977478 37.35198975 C-31.65749554 40.73457813 -31.7039102 44.11720063 -31.75 47.5 C-31.78818416 49.79428562 -31.82723615 52.08855697 -31.8671875 54.3828125 C-31.96319333 60.00509236 -32.04724253 65.62743934 -32.125 71.25 C-38.395 71.25 -44.665 71.25 -51.125 71.25 C-51.125 47.82 -51.125 24.39 -51.125 0.25 C-45.515 0.25 -39.905 0.25 -34.125 0.25 C-33.465 2.23 -32.805 4.21 -32.125 6.25 C-31.45404297 5.63511719 -31.45404297 5.63511719 -30.76953125 5.0078125 C-30.16496094 4.46898437 -29.56039062 3.93015625 -28.9375 3.375 C-28.34582031 2.84132813 -27.75414062 2.30765625 -27.14453125 1.7578125 C-19.90862304 -3.64462574 -8.11787802 -3.47128117 0 0 Z "
        fill="#F1F1F1" transform="translate(771.125,742.75)" />
    <path
        d="M0 0 C6.27 0 12.54 0 19 0 C19.01458252 1.4226416 19.02916504 2.8452832 19.04418945 4.31103516 C19.10225816 9.6003505 19.17949126 14.88924397 19.26245117 20.17822266 C19.29566006 22.46526226 19.32370451 24.75238303 19.34643555 27.03955078 C19.3800551 30.33140578 19.43237624 33.62251972 19.48828125 36.9140625 C19.49467117 37.93303619 19.5010611 38.95200989 19.50764465 40.00186157 C19.61865118 45.38862923 19.92595083 49.36930868 23 54 C26.93586705 56.77920408 31.36432992 56.6587954 36 56 C40.08904915 53.91830225 42.31377464 52.24246713 44 48 C44.32352812 45.66019459 44.32352812 45.66019459 44.31884766 43.13964844 C44.33871735 42.17895447 44.35858704 41.2182605 44.37905884 40.22845459 C44.39061005 39.19915833 44.40216125 38.16986206 44.4140625 37.109375 C44.43342865 36.04962463 44.4527948 34.98987427 44.4727478 33.89801025 C44.53249554 30.51542187 44.5789102 27.13279937 44.625 23.75 C44.66318416 21.45571438 44.70223615 19.16144303 44.7421875 16.8671875 C44.83819333 11.24490764 44.92224253 5.62256066 45 0 C51.27 0 57.54 0 64 0 C64 23.43 64 46.86 64 71 C58.06 71 52.12 71 46 71 C45.505 67.535 45.505 67.535 45 64 C44.50371094 64.48210937 44.00742187 64.96421875 43.49609375 65.4609375 C36.70355672 71.77657914 31.01130067 73.47018644 21.77734375 73.2421875 C15.64934881 72.70781945 10.85899613 71.37930781 6.625 66.75 C1.81274197 60.43141189 -0.13313909 53.65505398 -0.11352539 45.75073242 C-0.11341209 44.21971138 -0.11341209 44.21971138 -0.11329651 42.65776062 C-0.10813522 41.5680043 -0.10297394 40.47824799 -0.09765625 39.35546875 C-0.0962413 38.2305452 -0.09482635 37.10562164 -0.09336853 35.9466095 C-0.08777931 32.36021241 -0.07522872 28.77387816 -0.0625 25.1875 C-0.05748361 22.75325611 -0.05292094 20.31901124 -0.04882812 17.88476562 C-0.03781339 11.92315294 -0.02055611 5.96158712 0 0 Z "
        fill="#F1F1F1" transform="translate(222,743)" />
    <path
        d="M0 0 C6.6 0 13.2 0 20 0 C22.14202773 6.04867829 24.28019833 12.09844047 26.40869141 18.15185547 C27.13398675 20.21091541 27.86151277 22.26919102 28.59130859 24.32666016 C29.63966325 27.28344819 30.67997442 30.24296023 31.71875 33.203125 C32.04685669 34.12305237 32.37496338 35.04297974 32.7130127 35.99078369 C33.01332397 36.8513739 33.31363525 37.71196411 33.62304688 38.59863281 C34.02275696 39.73114471 34.02275696 39.73114471 34.43054199 40.88653564 C35 43 35 43 35 47 C35.66 47 36.32 47 37 47 C37.10911713 46.45694717 37.21823425 45.91389435 37.33065796 45.35438538 C38.52367589 39.68065821 40.12899704 34.27840323 42.0390625 28.80859375 C42.32478119 27.97787857 42.61049988 27.14716339 42.90487671 26.29127502 C43.80700938 23.6717446 44.71587544 21.05461097 45.625 18.4375 C46.24263669 16.64794143 46.85982833 14.85822919 47.4765625 13.06835938 C48.97842244 8.71013945 50.48939119 4.35523412 52 0 C58.27 0 64.54 0 71 0 C70.21334888 3.93325558 69.28457908 7.29039209 67.953125 11.0390625 C67.52620361 12.24361084 67.09928223 13.44815918 66.65942383 14.68920898 C66.18984751 16.00122225 65.72003342 17.31315043 65.25 18.625 C64.76650255 19.98184593 64.28302307 21.33869826 63.79956055 22.69555664 C58.02554514 38.85541747 52.01377707 54.92820469 46 71 C39.4 71 32.8 71 26 71 C22.60652865 62.03937506 19.21583463 53.07771293 15.83006287 44.1141758 C14.25792171 39.95240671 12.68455221 35.79111062 11.10839844 31.63085938 C9.58829863 27.61842724 8.07139558 23.6048003 6.55673218 19.59031296 C5.97735054 18.0564279 5.39680458 16.52298213 4.81509399 14.98997879 C4.00257887 12.84813749 3.19416115 10.70479297 2.38671875 8.56103516 C1.92483154 7.33969879 1.46294434 6.11836243 0.98706055 4.86001587 C0 2 0 2 0 0 Z "
        fill="#F2F2F1" transform="translate(345,743)" />
    <path
        d="M0 0 C0 5.94 0 11.88 0 18 C-1.85625 17.938125 -3.7125 17.87625 -5.625 17.8125 C-10.50966303 17.82976029 -14.00094007 17.92380005 -18 21 C-21.46639226 26.30326157 -21.46971029 31.08723635 -21.51171875 37.2109375 C-21.52966995 38.17907379 -21.54762115 39.14721008 -21.56611633 40.14468384 C-21.62007795 43.22141227 -21.65406989 46.2979868 -21.6875 49.375 C-21.72068553 51.46746926 -21.75517633 53.55991826 -21.79101562 55.65234375 C-21.87824162 60.7682496 -21.93843173 65.88346425 -22 71 C-28.27 71 -34.54 71 -41 71 C-41 47.57 -41 24.14 -41 0 C-35.39 0 -29.78 0 -24 0 C-23.34 2.97 -22.68 5.94 -22 9 C-21.29875 7.906875 -20.5975 6.81375 -19.875 5.6875 C-15.37696263 -0.519289 -7.26184092 -3.63092046 0 0 Z "
        fill="#F3F2F1" transform="translate(338,743)" />
    <path
        d="M0 0 C4.4978276 1.63696447 7.92887994 4.25804144 10.5 8.3125 C12.26863619 12.43145717 12.38070104 16.63775971 12.4375 21.0625 C12.4478125 21.73514893 12.458125 22.40779785 12.46875 23.10083008 C12.35750616 29.4193259 10.71253509 33.97199792 6.625 38.8125 C2.95716348 41.86903044 0.41581289 42.8397193 -4.3125 43.375 C-10.34568794 42.76145546 -14.49440623 40.82256089 -18.375 36.125 C-22.56591204 28.06555377 -23.3513815 20.00859783 -20.9375 11.1875 C-17.43325048 1.80352413 -9.30902609 -1.17043311 0 0 Z "
        fill="#1976BF" transform="translate(836,756)" />
    <path
        d="M0 0 C5.08663138 2.17998488 7.08700638 5.17124054 9.25390625 10.0625 C12.20605414 17.72881074 11.63449827 25.97471107 9.12109375 33.6953125 C7.29159252 37.45630807 4.52674891 39.82784329 1 42 C-4.36950705 43.78983568 -9.19735333 43.88431724 -14.3125 41.375 C-18.0586516 38.06444743 -20.41844616 34.74466151 -22 30 C-22.17560807 27.08951219 -22.27718869 24.22450631 -22.3125 21.3125 C-22.34150391 20.53455078 -22.37050781 19.75660156 -22.40039062 18.95507812 C-22.46335449 13.14787264 -21.22906106 8.85675256 -18 4 C-12.88840717 -1.11159283 -6.81578289 -0.89878456 0 0 Z "
        fill="#1977C0" transform="translate(681,757)" />
    <path
        d="M0 0 C5.53298336 4.88204414 8.8476064 9.3193184 9.42578125 16.73046875 C9.44522359 18.17435356 9.44850322 19.61852622 9.4375 21.0625 C9.43012817 22.19643188 9.43012817 22.19643188 9.42260742 23.35327148 C9.2993074 29.25712961 8.56760883 34.44367062 6.125 39.875 C5.64933594 40.94814453 5.64933594 40.94814453 5.1640625 42.04296875 C2.00173165 48.01999833 -2.85068066 51.04405969 -8.875 53.875 C-11.18359375 54.53515625 -11.18359375 54.53515625 -12.875 54.875 C-11.13690548 50.41710942 -9.13752277 46.11338658 -7.09375 41.7890625 C-4.53897848 35.68053829 -3.53177258 30.23244052 -3.5625 23.6875 C-3.54638672 22.98947266 -3.53027344 22.29144531 -3.51367188 21.57226562 C-3.5106858 18.43390104 -3.67933382 16.22651657 -5.21875 13.4609375 C-10.72466136 8.18876766 -20.8061523 9.24756063 -27.875 8.875 C-21.29651398 -0.04117125 -10.68452652 -4.18090168 0 0 Z "
        fill="#1A7CC5" transform="translate(510.875,290.125)" />
    <path
        d="M0 0 C0.84175781 -0.00257813 1.68351563 -0.00515625 2.55078125 -0.0078125 C3.87142578 0.00378906 3.87142578 0.00378906 5.21875 0.015625 C6.09917969 0.00789062 6.97960937 0.00015625 7.88671875 -0.0078125 C8.72847656 -0.00523437 9.57023438 -0.00265625 10.4375 0 C11.59668945 0.00338379 11.59668945 0.00338379 12.77929688 0.00683594 C14.71875 0.265625 14.71875 0.265625 16.71875 2.265625 C17.00168768 5.23920393 17.16522763 8.12504584 17.23828125 11.10546875 C17.27800301 12.42231407 17.27800301 12.42231407 17.31852722 13.76576233 C17.37125107 15.62422377 17.41882463 17.48283732 17.46166992 19.34155273 C17.53090285 22.18884802 17.62682995 25.03441907 17.72460938 27.88085938 C17.77246474 29.68485329 17.81874133 31.48888993 17.86328125 33.29296875 C17.89436478 34.14616196 17.9254483 34.99935516 17.95747375 35.87840271 C17.99926758 38.28491211 17.99926758 38.28491211 17.71875 42.265625 C16.72875 43.255625 15.73875 44.245625 14.71875 45.265625 C14.71875 31.075625 14.71875 16.885625 14.71875 2.265625 C8.44875 2.265625 2.17875 2.265625 -4.28125 2.265625 C-4.28125 33.615625 -4.28125 64.965625 -4.28125 97.265625 C1.98875 97.265625 8.25875 97.265625 14.71875 97.265625 C14.71875 87.695625 14.71875 78.125625 14.71875 68.265625 C15.37875 68.265625 16.03875 68.265625 16.71875 68.265625 C16.76814115 72.35901152 16.80446501 76.45228298 16.82861328 80.54589844 C16.83867877 81.93883281 16.85233234 83.33174602 16.86962891 84.72460938 C16.8938522 86.7251686 16.90415814 88.72588115 16.9140625 90.7265625 C16.92453613 91.93103027 16.93500977 93.13549805 16.94580078 94.37646484 C16.71875 97.265625 16.71875 97.265625 14.71875 99.265625 C12.77929688 99.52441406 12.77929688 99.52441406 10.4375 99.53125 C9.59574219 99.53382813 8.75398437 99.53640625 7.88671875 99.5390625 C7.00628906 99.53132812 6.12585938 99.52359375 5.21875 99.515625 C4.33832031 99.52335938 3.45789063 99.53109375 2.55078125 99.5390625 C1.70902344 99.53648437 0.86726562 99.53390625 0 99.53125 C-0.77279297 99.52899414 -1.54558594 99.52673828 -2.34179688 99.52441406 C-4.28125 99.265625 -4.28125 99.265625 -6.28125 97.265625 C-6.48014816 94.2632713 -6.55388848 91.35312402 -6.54003906 88.34960938 C-6.5435437 87.4259407 -6.54704834 86.50227203 -6.55065918 85.5506134 C-6.55948676 82.4867916 -6.55362371 79.4231993 -6.546875 76.359375 C-6.54822135 74.23710078 -6.55016164 72.11482687 -6.55267334 69.99255371 C-6.555626 65.54041615 -6.5513224 61.08835873 -6.54199219 56.63623047 C-6.53059761 50.91930513 -6.53715632 45.20256755 -6.54913712 39.48564911 C-6.55635188 35.10201595 -6.55406955 30.71842757 -6.54888153 26.33479309 C-6.54754397 24.22638426 -6.54919644 22.1179714 -6.55384064 20.00956726 C-6.55889956 17.06681494 -6.55120454 14.12436996 -6.54003906 11.18164062 C-6.54408752 10.30365311 -6.54813599 9.42566559 -6.55230713 8.52107239 C-6.51073557 2.62989968 -6.25566134 0.0182609 0 0 Z "
        fill="#0769BA" transform="translate(566.28125,716.734375)" />
    <path
        d="M0 0 C6.27 0 12.54 0 19 0 C19 13.86 19 27.72 19 42 C18.01 42.495 18.01 42.495 17 43 C17 29.14 17 15.28 17 1 C16.01 1.495 16.01 1.495 15 2 C13.16871229 2.09608608 11.33380041 2.12982579 9.5 2.125 C8.5203125 2.12757813 7.540625 2.13015625 6.53125 2.1328125 C4 2 4 2 2 1 C2 31.36 2 61.72 2 93 C6.95 93 11.9 93 17 93 C16.94779297 90.37998047 16.94779297 90.37998047 16.89453125 87.70703125 C16.86639042 85.40886379 16.83909058 83.11068592 16.8125 80.8125 C16.78736328 79.66201172 16.76222656 78.51152344 16.73632812 77.32617188 C16.72666016 76.21435547 16.71699219 75.10253906 16.70703125 73.95703125 C16.6913208 72.93585205 16.67561035 71.91467285 16.65942383 70.86254883 C17.05025747 67.5775851 18.1256904 65.69148265 20 63 C20 66.21776467 19.89359544 69.42083052 19.78125 72.63671875 C19.71357422 74.58481445 19.71357422 74.58481445 19.64453125 76.57226562 C19.59636535 77.94401081 19.54818812 79.3157556 19.5 80.6875 C19.45177545 82.07096189 19.40359782 83.45442541 19.35546875 84.83789062 C19.23744137 88.22527655 19.1187803 91.61264039 19 95 C12.73 95 6.46 95 0 95 C0 63.65 0 32.3 0 0 Z "
        fill="#FCFAF6" transform="translate(562,719)" />
    <path
        d="M0 0 C3.86713874 2.18894646 5.36401869 3.90009812 7.3125 7.875 C7.3125 9.855 7.3125 11.835 7.3125 13.875 C-2.2575 13.875 -11.8275 13.875 -21.6875 13.875 C-19.73914999 6.08159995 -18.98047439 3.88008207 -12.8125 -0.4375 C-8.27672516 -1.90495656 -4.49609297 -1.37168938 0 0 Z "
        fill="#1774BF" transform="translate(456.6875,757.125)" />
    <path
        d="M0 0 C2 0.6875 2 0.6875 4 2.6875 C4.52498589 7.26237705 4.73399552 9.53407846 2.25 13.4375 C-2.53947875 16.75329298 -9.05310586 19.6875 -15 19.6875 C-15.63967221 14.57012231 -14.27570701 11.70810273 -11.50390625 7.5859375 C-8.80089461 4.17382411 -4.67714532 -0.73080396 0 0 Z "
        fill="#092035" transform="translate(336,355.3125)" />
    <path
        d="M0 0 C0.66 0 1.32 0 2 0 C2 23.43 2 46.86 2 71 C-3.94 71 -9.88 71 -16 71 C-16 68.36 -16 65.72 -16 63 C-15.67 63 -15.34 63 -15 63 C-15 64.98 -15 66.96 -15 69 C-10.05 69 -5.1 69 0 69 C0 46.23 0 23.46 0 0 Z "
        fill="#E5ECF0" transform="translate(284,743)" />
    <path
        d="M0 0 C5.94 0 11.88 0 18 0 C18 14.52 18 29.04 18 44 C17.67 44 17.34 44 17 44 C17 30.14 17 16.28 17 2 C12.05 2 7.1 2 2 2 C2 19.16 2 36.32 2 54 C-0.18971746 50.71542381 -0.24583902 49.7824019 -0.22705078 45.9777832 C-0.22689972 44.95695145 -0.22674866 43.93611969 -0.22659302 42.88435364 C-0.21110916 41.23423531 -0.21110916 41.23423531 -0.1953125 39.55078125 C-0.1924826 38.4230278 -0.18965271 37.29527435 -0.18673706 36.13334656 C-0.17552916 32.52629042 -0.15042323 28.91948127 -0.125 25.3125 C-0.114971 22.86914421 -0.10584501 20.42578453 -0.09765625 17.98242188 C-0.07558779 11.98818587 -0.04105356 5.99413483 0 0 Z "
        fill="#FBFBF7" transform="translate(222,743)" />
    <path
        d="M0 0 C0.66 0 1.32 0 2 0 C2 16.5 2 33 2 50 C-4.27 50 -10.54 50 -17 50 C-17 34.82 -17 19.64 -17 4 C-16.67 4 -16.34 4 -16 4 C-16 18.52 -16 33.04 -16 48 C-10.72 48 -5.44 48 0 48 C0 32.16 0 16.32 0 0 Z "
        fill="#E1ECF2" transform="translate(784,764)" />
    <path
        d="M0 0 C5.61 0 11.22 0 17 0 C16.67 1.32 16.34 2.64 16 4 C16 3.34 16 2.68 16 2 C11.38 2 6.76 2 2 2 C2 24.77 2 47.54 2 71 C1.34 71 0.68 71 0 71 C0 47.57 0 24.14 0 0 Z "
        fill="#E4ECF0" transform="translate(297,743)" />
    <path
        d="M0 0 C16.17 0 32.34 0 49 0 C49 0.66 49 1.32 49 2 C33.49 2 17.98 2 2 2 C2 3.98 2 5.96 2 8 C0.23537317 4.91190305 0 3.76687864 0 0 Z "
        fill="#FBF9F7" transform="translate(433,781)" />
    <path
        d="M0 0 C1.35432675 1.31200404 2.68733482 2.64631404 4 4 C4 4.33 4 4.66 4 5 C-3.59 5 -11.18 5 -19 5 C-19 4.01 -19 3.02 -19 2 C-12.73 2 -6.46 2 0 2 C0 1.34 0 0.68 0 0 Z "
        fill="#FBF9F6" transform="translate(636,809)" />
    <path
        d="M0 0 C1.25882323 3.76700486 0.96221633 7.19696656 0.6875 11.125 C0.60886719 12.36507812 0.53023437 13.60515625 0.44921875 14.8828125 C0 18 0 18 -2 20 C-3.60260138 18.39739862 -3.20898122 16.71501415 -3.25 14.5 C-3.2195704 9.22046446 -1.97266911 4.86122031 0 0 Z "
        fill="#DBE7EE" transform="translate(145,732)" />
    <path
        d="M0 0 C7.26 0 14.52 0 22 0 C20.68 1.32 19.36 2.64 18 4 C18 3.34 18 2.68 18 2 C8.595 2.495 8.595 2.495 -1 3 C-0.67 2.01 -0.34 1.02 0 0 Z "
        fill="#FBFBF8" transform="translate(615,719)" />
    <path
        d="M0 0 C4.66370432 1.82588424 7.62977086 5.58660311 10.93359375 9.1875 C12.2168635 10.53120073 13.60473724 11.77298952 15 13 C16.32 13 17.64 13 19 13 C19.33 14.65 19.66 16.3 20 18 C12.19453873 14.44264376 5.72989368 7.24802237 0 1 C0 0.67 0 0.34 0 0 Z "
        fill="#0D6AD8" transform="translate(427,172)" />
    <path
        d="M0 0 C7.93396732 -0.24923458 15.2441657 0.29005228 23 2 C23 2.33 23 2.66 23 3 C21.35 3 19.7 3 18 3 C17.67 3.66 17.34 4.32 17 5 C16.01 4.34 15.02 3.68 14 3 C12.34450469 2.61500109 10.6777567 2.27206865 9 2 C8.67 2.99 8.34 3.98 8 5 C7.67 4.01 7.34 3.02 7 2 C4.69 1.67 2.38 1.34 0 1 C0 0.67 0 0.34 0 0 Z "
        fill="#061243" transform="translate(457,219)" />
    <path
        d="M0 0 C0 3.92379055 -1.60406942 5.00508678 -4 8 C-4 8.99 -4 9.98 -4 11 C-6.66666667 12.33333333 -9.33333333 13.66666667 -12 15 C-10.42921185 11.31766057 -8.13566869 8.74453885 -5.4375 5.8125 C-4.63183594 4.93207031 -3.82617188 4.05164063 -2.99609375 3.14453125 C-1 1 -1 1 0 0 Z "
        fill="#126DD2" transform="translate(790,324)" />
    <path
        d="M0 0 C0 0.33 0 0.66 0 1 C-0.75023437 1.04898437 -1.50046875 1.09796875 -2.2734375 1.1484375 C-8.98603585 1.63877844 -15.43761499 2.50458926 -22 4 C-18.72758449 1.15963935 -15.75766101 0.17202912 -11.5625 -0.8125 C-9.89380859 -1.22435547 -9.89380859 -1.22435547 -8.19140625 -1.64453125 C-4.74288277 -2.02863852 -3.04785109 -1.56665243 0 0 Z "
        fill="#091828" transform="translate(413,314)" />
    <path
        d="M0 0 C0 3 0 3 -2.265625 5.55859375 C-3.25292513 6.52593498 -4.2480879 7.4853011 -5.25 8.4375 C-5.74113281 8.91509766 -6.23226562 9.39269531 -6.73828125 9.88476562 C-8.1543376 11.2611724 -9.57705622 12.63071472 -11 14 C-12.33664869 15.33000971 -13.67142004 16.66193018 -15 18 C-14.41889329 14.57245533 -13.31446376 12.95461339 -10.83984375 10.546875 C-10.21142578 9.928125 -9.58300781 9.309375 -8.93554688 8.671875 C-8.27619141 8.03765625 -7.61683594 7.4034375 -6.9375 6.75 C-6.27427734 6.1003125 -5.61105469 5.450625 -4.92773438 4.78125 C-3.29170683 3.1805324 -1.64909088 1.58723807 0 0 Z "
        fill="#F9E211" transform="translate(550,487)" />
    <path
        d="M0 0 C0.7734375 -0.01417969 1.546875 -0.02835938 2.34375 -0.04296875 C4.5 0.1875 4.5 0.1875 7.5 2.1875 C4.71398777 3.11617074 2.88933911 3.35092217 0 3.375 C-1.16015625 3.39626953 -1.16015625 3.39626953 -2.34375 3.41796875 C-4.5 3.1875 -4.5 3.1875 -7.5 1.1875 C-4.71398777 0.25882926 -2.88933911 0.02407783 0 0 Z "
        fill="#E2EBF0" transform="translate(449.5,740.8125)" />
    <path
        d="M0 0 C1.32 0.66 2.64 1.32 4 2 C2.02 3.32 0.04 4.64 -2 6 C-1.67 8.31 -1.34 10.62 -1 13 C-3.0625 11.375 -3.0625 11.375 -5 9 C-4.75 5.75 -4.75 5.75 -4 3 C-3.01 2.67 -2.02 2.34 -1 2 C-0.67 1.34 -0.34 0.68 0 0 Z "
        fill="#0C1540" transform="translate(353,504)" />
    <path
        d="M0 0 C0.66 0 1.32 0 2 0 C2 2.64 2 5.28 2 8 C3.32 8.33 4.64 8.66 6 9 C5.67 10.65 5.34 12.3 5 14 C0.79289518 8.84290377 -0.12440607 6.71792803 0 0 Z "
        fill="#E9CA1C" transform="translate(473,134)" />
    <path
        d="M0 0 C1.15957207 3.47871621 0.77456651 4.34219645 -0.4375 7.6875 C-0.72496094 8.49574219 -1.01242187 9.30398438 -1.30859375 10.13671875 C-1.53675781 10.75160156 -1.76492188 11.36648438 -2 12 C-4.12508244 8.81237635 -4.5020163 6.73487777 -5 3 C-4.360625 2.87625 -3.72125 2.7525 -3.0625 2.625 C-2.0415625 2.315625 -2.0415625 2.315625 -1 2 C-0.67 1.34 -0.34 0.68 0 0 Z "
        fill="#1569B9" transform="translate(523,779)" />
    <path
        d="M0 0 C1.24546405 2.49092811 0.7767578 3.41080733 0 6 C0.78375 5.484375 1.5675 4.96875 2.375 4.4375 C3.674375 3.7259375 3.674375 3.7259375 5 3 C5.66 3.33 6.32 3.66 7 4 C5.75443908 4.81928886 4.50333365 5.63015186 3.25 6.4375 C2.55390625 6.88996094 1.8578125 7.34242188 1.140625 7.80859375 C-0.92957014 8.9608009 -2.68696324 9.54676982 -5 10 C-3.66511872 6.40608886 -2.03977277 3.24509304 0 0 Z "
        fill="#1C86D5" transform="translate(503,335)" />
    <path
        d="M0 0 C-6.4 4.06153846 -6.4 4.06153846 -9.4375 3.75 C-9.953125 3.5025 -10.46875 3.255 -11 3 C-11 3.66 -11 4.32 -11 5 C-12.32 4.67 -13.64 4.34 -15 4 C-14 2 -14 2 -11.34765625 1.11328125 C-9.72150391 0.71689453 -9.72150391 0.71689453 -8.0625 0.3125 C-6.98097656 0.04050781 -5.89945313 -0.23148438 -4.78515625 -0.51171875 C-2 -1 -2 -1 0 0 Z "
        fill="#E1ECF1" transform="translate(862,921)" />
    <path
        d="M0 0 C1.53817493 3.07634986 0.50657543 5.5438218 -0.25390625 8.80078125 C-1.2147269 11.63293846 -2.64378326 13.19356716 -5 15 C-4.43174347 9.45949887 -2.37113483 4.96284034 0 0 Z "
        fill="#176EBD" transform="translate(401,786)" />
    <path
        d="M0 0 C0.33 0 0.66 0 1 0 C1 2.31 1 4.62 1 7 C-5.27 7 -11.54 7 -18 7 C-18 6.67 -18 6.34 -18 6 C-10.08 5.505 -10.08 5.505 -2 5 C-1.34 3.35 -0.68 1.7 0 0 Z "
        fill="#E1E9F0" transform="translate(210,738)" />
    <path
        d="M0 0 C2 3 2 3 1.7578125 5.48046875 C1.54898438 6.37378906 1.34015625 7.26710938 1.125 8.1875 C0.92132812 9.08855469 0.71765625 9.98960937 0.5078125 10.91796875 C0.25644531 11.94857422 0.25644531 11.94857422 0 13 C-0.99 13 -1.98 13 -3 13 C-2.01 8.71 -1.02 4.42 0 0 Z "
        fill="#E6EDF2" transform="translate(940,834)" />
    <path
        d="M0 0 C1.32 0 2.64 0 4 0 C4 3 4 3 1.5 5.6875 C0.675 6.450625 -0.15 7.21375 -1 8 C-0.67 6.68 -0.34 5.36 0 4 C-0.66 4 -1.32 4 -2 4 C-1.34 2.68 -0.68 1.36 0 0 Z "
        fill="#136EBC" transform="translate(586,748)" />
    <path
        d="M0 0 C4.52615993 3.67832017 8.39424999 7.41086363 12 12 C7.0187842 9.78612631 2.933076 6.63117263 0 2 C0 1.34 0 0.68 0 0 Z "
        fill="#1A7FCB" transform="translate(299,460)" />
    <path
        d="M0 0 C3.96 0 7.92 0 12 0 C10.35 1.65 8.7 3.3 7 5 C6.34 4.67 5.68 4.34 5 4 C5.66 3.01 6.32 2.02 7 1 C4.69 1 2.38 1 0 1 C0 0.67 0 0.34 0 0 Z "
        fill="#1B84D3" transform="translate(341,484)" />
    <path
        d="M0 0 C1.35308313 1.31328657 2.68870078 2.64499081 4 4 C2.88625 3.814375 1.7725 3.62875 0.625 3.4375 C-2.82568861 2.68319343 -2.82568861 2.68319343 -5 4 C-5.66 3.34 -6.32 2.68 -7 2 C-7 1.34 -7 0.68 -7 0 C-2.25 -1.125 -2.25 -1.125 0 0 Z "
        fill="#ECC51D" transform="translate(558,161)" />
    <path
        d="M0 0 C0 0.99 0 1.98 0 3 C-1.65 3 -3.3 3 -5 3 C-4.67 3.99 -4.34 4.98 -4 6 C-4.99 6.495 -4.99 6.495 -6 7 C-6.33 5.35 -6.66 3.7 -7 2 C-4.35261084 0.5393715 -3.10551666 0 0 0 Z "
        fill="#E1E9F0" transform="translate(805,823)" />
    <path
        d="M0 0 C0 1.32 0 2.64 0 4 C-0.66 4 -1.32 4 -2 4 C-2.33 4.99 -2.66 5.98 -3 7 C-3.99 7 -4.98 7 -6 7 C-6 4 -6 4 -4.125 1.8125 C-2 0 -2 0 0 0 Z "
        fill="#0F70D2" transform="translate(752,369)" />
    <path
        d="M0 0 C0 3.67718093 -0.82184858 5.07076189 -3 8 C-5.6875 9.3125 -5.6875 9.3125 -8 10 C-7.04367001 8.70684939 -6.08486149 7.41553147 -5.125 6.125 C-4.59132813 5.40570312 -4.05765625 4.68640625 -3.5078125 3.9453125 C-2 2 -2 2 0 0 Z "
        fill="#0C1340" transform="translate(623,519)" />
    <path
        d="M0 0 C0 3 0 3 -1.2421875 4.60546875 C-1.78101563 5.12753906 -2.31984375 5.64960938 -2.875 6.1875 C-3.40867187 6.71730469 -3.94234375 7.24710937 -4.4921875 7.79296875 C-6 9 -6 9 -8 9 C-7.8125 7.1875 -7.8125 7.1875 -7 5 C-4.5625 3.375 -4.5625 3.375 -2 2 C-1.34 1.34 -0.68 0.68 0 0 Z "
        fill="#1A82CF" transform="translate(334,327)" />
    <path
        d="M0 0 C1 3 1 3 1 5 C0.030625 5.12375 -0.93875 5.2475 -1.9375 5.375 C-3.4534375 5.684375 -3.4534375 5.684375 -5 6 C-5.33 6.66 -5.66 7.32 -6 8 C-6.33 7.01 -6.66 6.02 -7 5 C-6.21625 4.54625 -5.4325 4.0925 -4.625 3.625 C-1.96301969 2.11571258 -1.96301969 2.11571258 0 0 Z "
        fill="#146FD0" transform="translate(491,143)" />
    <path
        d="M0 0 C0.99 0 1.98 0 3 0 C2.67 4.29 2.34 8.58 2 13 C1.67 13 1.34 13 1 13 C0.67 8.71 0.34 4.42 0 0 Z "
        fill="#0B2A45" transform="translate(256,661)" />
    <path
        d="M0 0 C0.33 0.66 0.66 1.32 1 2 C-0.423125 2.37125 -0.423125 2.37125 -1.875 2.75 C-5.08693191 3.6857077 -5.08693191 3.6857077 -6.375 6.125 C-6.58125 6.74375 -6.7875 7.3625 -7 8 C-7.66 8 -8.32 8 -9 8 C-9 7.01 -9 6.02 -9 5 C-6.03 3.35 -3.06 1.7 0 0 Z "
        fill="#F7DA13" transform="translate(362,503)" />
    <path
        d="M0 0 C0.33 0 0.66 0 1 0 C2 6.625 2 6.625 2 10 C0.68 8.68 -0.64 7.36 -2 6 C-1.34 4.02 -0.68 2.04 0 0 Z "
        fill="#1E7ECD" transform="translate(542,231)" />
    <path
        d="M0 0 C2.125 0.9375 2.125 0.9375 4 2 C3.01 3.485 3.01 3.485 2 5 C-0.625 5.1875 -0.625 5.1875 -3 5 C-2.625 3.0625 -2.625 3.0625 -2 1 C-1.34 0.67 -0.68 0.34 0 0 Z "
        fill="#1372CE" transform="translate(548,160)" />
    <path
        d="M0 0 C0.66 1.32 1.32 2.64 2 4 C2.66 4 3.32 4 4 4 C4 6.31 4 8.62 4 11 C1.6870518 8.6870518 1.50419025 7.52095125 0.875 4.375 C0.70742188 3.55773437 0.53984375 2.74046875 0.3671875 1.8984375 C0.24601562 1.27195312 0.12484375 0.64546875 0 0 Z "
        fill="#0D66B9" transform="translate(376,774)" />
    <path
        d="M0 0 C0 0.99 0 1.98 0 3 C-2.88834003 5.10770759 -4.38462395 6 -8 6 C-3.375 0 -3.375 0 0 0 Z "
        fill="#1570CF" transform="translate(800,315)" />
    <path
        d="M0 0 C0 3 0 3 -2.5 5.6875 C-3.325 6.450625 -4.15 7.21375 -5 8 C-5.3125 5.6875 -5.3125 5.6875 -5 3 C-2.5 1.1875 -2.5 1.1875 0 0 Z "
        fill="#F7DB14" transform="translate(566,587)" />
    <path
        d="M0 0 C0 3.15081975 -0.27898465 4.41847698 -2 7 C-3.32 7.33 -4.64 7.66 -6 8 C-4.02 5.36 -2.04 2.72 0 0 Z "
        fill="#0F69B9" transform="translate(611,752)" />
    <path
        d="M0 0 C-2.97 2.475 -2.97 2.475 -6 5 C-6.66 4.67 -7.32 4.34 -8 4 C-7 1 -7 1 -4.5625 -0.25 C-2 -1 -2 -1 0 0 Z "
        fill="#126ED5" transform="translate(815,258)" />
    <path
        d="M0 0 C0.99 0.33 1.98 0.66 3 1 C1.515 4.465 1.515 4.465 0 8 C-0.33 8 -0.66 8 -1 8 C-0.67 5.36 -0.34 2.72 0 0 Z "
        fill="#1470CF" transform="translate(559,165)" />
</svg>
